<svg width="28" height="28" viewBox="0 0 28 28" fill="none" xmlns="http://www.w3.org/2000/svg">
<path d="M22.3849 17.39C22.2643 17.5136 22.1722 17.662 22.1149 17.825C22.0772 17.9979 22.0772 18.177 22.1149 18.35L22.9999 24.245C23.0789 24.705 23.0269 25.178 22.8499 25.61C22.6703 26.0464 22.3681 26.4215 21.9799 26.69C21.5951 26.9604 21.144 27.1211 20.6749 27.155C20.2076 27.1741 19.7445 27.0597 19.3399 26.825L14.5549 24.17C14.3948 24.0798 14.2137 24.0333 14.0299 24.035C13.8414 24.0334 13.6556 24.0799 13.4899 24.17L8.73494 26.825C8.32052 27.047 7.85483 27.1557 7.38494 27.14C7.03709 27.1172 6.69781 27.0221 6.38882 26.8607C6.07982 26.6993 5.80792 26.4752 5.59049 26.2027C5.37307 25.9302 5.21491 25.6154 5.12614 25.2783C5.03736 24.9411 5.01993 24.5892 5.07494 24.245L6.03494 18.35C6.08006 18.1779 6.08006 17.9971 6.03494 17.825C5.98891 17.6604 5.90106 17.5105 5.77994 17.39L1.56494 13.145C1.25037 12.8129 1.02803 12.4044 0.919943 11.96C0.800123 11.518 0.800123 11.052 0.919943 10.61C1.08595 10.1743 1.36564 9.79099 1.72994 9.49998C2.0818 9.20374 2.50646 9.00694 2.95994 8.92998L8.49494 8.08998C8.67356 8.05783 8.8427 7.98607 8.98994 7.87998C9.13593 7.7686 9.25404 7.62482 9.33494 7.45998L11.7349 2.29998C11.9339 1.87007 12.2513 1.50582 12.6499 1.24998C13.0514 0.995174 13.517 0.859863 13.9924 0.859863C14.4679 0.859863 14.9335 0.995174 15.3349 1.24998C15.7336 1.50582 16.051 1.87007 16.2499 2.29998L18.6649 7.45998C18.7411 7.62784 18.8601 7.77269 19.0099 7.87998C19.1555 7.98897 19.3254 8.06102 19.5049 8.08998L25.0399 8.92998C25.4934 9.00694 25.9181 9.20374 26.2699 9.49998C26.6144 9.80259 26.8731 10.1906 27.0199 10.625C27.1398 11.067 27.1398 11.533 27.0199 11.975C26.9119 12.4194 26.6895 12.8279 26.3749 13.16L22.3849 17.39Z" fill="#1B1B1D"/>
</svg>
